<svg width="157" height="58" viewBox="0 0 157 58" fill="none" xmlns="http://www.w3.org/2000/svg">
<path d="M19.2624 47.7146L11.1517 50.5214C11.0485 50.5602 10.9775 50.5537 10.9388 50.5021C10.9001 50.4505 10.8936 50.3924 10.9195 50.3279L11.8293 48.2953C11.9196 48.1147 12.0551 47.9985 12.2358 47.9469L20.2303 45.353C20.4368 45.2885 20.4949 45.3401 20.4045 45.5079L19.5528 47.5017C19.527 47.5533 19.4883 47.592 19.4367 47.6178C19.385 47.6566 19.327 47.6888 19.2624 47.7146ZM13.5195 28.3643C13.7905 28.3643 14.068 28.4933 14.3519 28.7514C14.6358 28.9966 14.9068 29.2999 15.1649 29.6612C15.4359 30.0097 15.6875 30.3775 15.9198 30.7646C16.165 31.1518 16.3844 31.4808 16.578 31.7518C16.9006 32.2293 17.2555 32.6229 17.6426 32.9326C18.0427 33.2294 18.475 33.4617 18.9396 33.6295C19.4041 33.7972 19.8945 33.9134 20.4107 33.9779C20.9269 34.0424 21.4754 34.0747 22.0561 34.0747H22.8885C23.1336 34.0747 23.3337 34.1908 23.4885 34.4231C23.6563 34.6554 23.7789 34.9458 23.8563 35.2942C23.9467 35.6297 23.9918 36.004 23.9918 36.4169C23.9918 36.817 23.9467 37.1912 23.8563 37.5397C23.7789 37.8752 23.6563 38.1591 23.4885 38.3914C23.3337 38.6237 23.1336 38.7398 22.8885 38.7398H22.0561C21.4754 38.7398 20.8753 38.7204 20.2559 38.6817C19.6493 38.6301 19.1331 38.5333 18.7073 38.3914C18.6815 38.5075 18.6169 38.6753 18.5137 38.8947C18.4234 39.127 18.3201 39.3528 18.204 39.5722C18.1008 39.8045 17.9975 40.0045 17.8943 40.1722C17.791 40.34 17.7136 40.4303 17.662 40.4432C17.1587 40.4691 16.6296 40.4562 16.0747 40.4045C15.5327 40.3529 14.9971 40.2755 14.468 40.1722C13.9518 40.069 13.455 39.9464 12.9775 39.8045C12.5129 39.6625 12.1064 39.5141 11.758 39.3592C11.4225 39.9271 11.1128 40.4432 10.8289 40.9078C10.5579 41.3724 10.2804 41.7854 9.9965 42.1467C9.7126 42.5209 9.40933 42.8371 9.08671 43.0952C8.76409 43.3662 8.3963 43.5791 7.98334 43.734C7.67363 43.8501 7.24131 43.9534 6.68641 44.0437C6.1315 44.134 5.53787 44.2244 4.90554 44.3147C4.2732 44.4179 3.64086 44.5212 3.00852 44.6244C2.36328 44.7406 1.79546 44.8761 1.30508 45.0309C1.21475 45.0567 1.11796 45.0567 1.01472 45.0309C0.911482 45.018 0.834052 44.9858 0.782433 44.9341C0.730814 44.8825 0.717909 44.8115 0.743718 44.7212C0.769528 44.6438 0.872767 44.5534 1.05343 44.4502C1.99549 43.8695 2.944 43.321 3.89896 42.8048C4.86682 42.3015 5.79597 41.7789 6.68641 41.2369C6.98322 41.0691 7.3252 40.8562 7.71234 40.5981C8.09949 40.34 8.46728 40.0819 8.81571 39.8238C9.16414 39.5786 9.46095 39.3463 9.70614 39.127C9.96424 38.9205 10.1126 38.7721 10.1514 38.6817C9.93198 38.5656 9.75776 38.4236 9.62871 38.2559C9.51257 38.0752 9.42224 37.8687 9.35771 37.6364C9.30609 37.3912 9.28028 37.1073 9.28028 36.7847C9.28028 36.4492 9.28673 36.0685 9.29964 35.6426C9.31254 35.5523 9.27383 35.4684 9.1835 35.391C9.09316 35.3007 9.048 35.1974 9.048 35.0813C9.08671 34.6683 9.1964 34.2167 9.37707 33.7263C9.55774 33.223 9.77712 32.7261 10.0352 32.2358C10.2933 31.7325 10.5837 31.2485 10.9063 30.784C11.2289 30.3194 11.5451 29.9064 11.8548 29.5451C12.1774 29.1838 12.4807 28.8999 12.7646 28.6934C13.0614 28.474 13.3131 28.3643 13.5195 28.3643ZM13.2872 32.6035C13.1711 32.6035 13.0098 32.6358 12.8033 32.7003C12.6097 32.752 12.4097 32.8423 12.2032 32.9713C11.9968 33.0875 11.7967 33.2488 11.6032 33.4553C11.4096 33.6488 11.2547 33.8811 11.1386 34.1521C11.216 34.2812 11.3644 34.4231 11.5838 34.578C11.8161 34.7199 12.0806 34.8619 12.3774 35.0039C12.6743 35.1458 12.9904 35.2813 13.326 35.4104C13.6615 35.5265 13.9777 35.6362 14.2745 35.7394C14.5842 35.8298 14.8552 35.9072 15.0875 35.9717C15.3327 36.0233 15.5069 36.0491 15.6101 36.0491C15.2875 35.791 15.01 35.4749 14.7778 35.1006C14.5455 34.7135 14.339 34.3457 14.1583 33.9973C13.9906 33.6359 13.8357 33.3198 13.6937 33.0488C13.5518 32.7778 13.4163 32.6294 13.2872 32.6035ZM26.5919 43.4049L28.0437 41.0627C28.1211 40.9723 28.1985 40.953 28.276 41.0046L30.9666 42.7855C31.057 42.8629 31.0763 42.9597 31.0247 43.0758L29.4181 45.6697C29.3019 45.7859 29.1922 45.7988 29.089 45.7084L26.6306 44.0631L25.1982 46.3859C25.0691 46.5021 24.9594 46.515 24.8691 46.4247L22.2171 44.6825C22.0752 44.5793 22.0558 44.4696 22.1591 44.3534L23.7657 41.7789C23.8819 41.7015 23.9851 41.6821 24.0754 41.7208L26.5919 43.4049ZM27.2694 24.5509C27.321 24.3832 27.4372 24.3832 27.6178 24.5509C28.5083 25.4414 29.2438 26.435 29.8246 27.5319C30.4053 28.6289 30.7408 29.8225 30.8311 31.113C30.8699 31.6808 30.8569 32.268 30.7924 32.8745C30.7279 33.4682 30.6118 34.0424 30.444 34.5973C30.2762 35.1394 30.0568 35.6362 29.7858 36.0879C29.5277 36.5395 29.218 36.9009 28.8567 37.1719C28.405 37.5074 27.8695 37.7784 27.25 37.9849C26.6306 38.1914 25.9854 38.3527 25.3143 38.4688C24.6562 38.572 23.998 38.643 23.3399 38.6817C22.6817 38.7204 22.0816 38.7398 21.5396 38.7398H20.7266C20.6492 38.7398 20.5589 38.6688 20.4556 38.5269C20.3524 38.3849 20.2492 38.2043 20.1459 37.9849C20.0427 37.7655 19.9588 37.5138 19.8943 37.2299C19.8168 36.946 19.7781 36.6686 19.7781 36.3976C19.7781 36.1395 19.8168 35.8749 19.8943 35.6039C19.9588 35.32 20.0427 35.0684 20.1459 34.849C20.2492 34.6167 20.3524 34.4296 20.4556 34.2876C20.5589 34.1457 20.6492 34.0747 20.7266 34.0747H21.0557H21.5396C22.0945 34.0747 22.7462 34.0618 23.4947 34.036C24.2561 33.9973 25.011 33.9327 25.7595 33.8424C26.508 33.7392 27.1984 33.6037 27.8308 33.4359C28.476 33.2681 28.9599 33.0488 29.2826 32.7778C29.1148 32.3132 28.9019 31.868 28.6438 31.4421C28.3986 31.0033 28.134 30.5968 27.8501 30.2226C27.5791 29.8355 27.3081 29.487 27.0371 29.1773C26.779 28.8547 26.5467 28.5772 26.3402 28.3449C26.4693 27.6481 26.6112 27.0093 26.7661 26.4286C26.921 25.8349 27.0887 25.2091 27.2694 24.5509ZM43.3228 54.7146L35.2121 57.5214C35.1088 57.5602 35.0379 57.5537 34.9992 57.5021C34.9604 57.4505 34.954 57.3924 34.9798 57.3279L35.8896 55.2953C35.9799 55.1147 36.1154 54.9985 36.2961 54.9469L44.2906 52.353C44.4971 52.2885 44.5552 52.3401 44.4649 52.5079L43.6131 54.5017C43.5873 54.5533 43.5486 54.592 43.497 54.6178C43.4454 54.6566 43.3873 54.6888 43.3228 54.7146ZM40.406 32.7971C41.0513 33.2359 41.7481 33.5585 42.4966 33.765C43.258 33.9715 44.1678 34.0747 45.226 34.0747H45.9422H46.2906C46.3423 34.0747 46.4132 34.1457 46.5036 34.2876C46.6068 34.4296 46.7036 34.6167 46.7939 34.849C46.8843 35.0684 46.9617 35.32 47.0262 35.6039C47.0907 35.8749 47.123 36.1459 47.123 36.4169C47.123 36.6879 47.0843 36.9654 47.0069 37.2493C46.9423 37.5203 46.8649 37.7655 46.7746 37.9849C46.6842 38.2043 46.5939 38.3849 46.5036 38.5269C46.4132 38.6688 46.3423 38.7398 46.2906 38.7398H45.226C44.9163 38.7398 44.6195 38.7334 44.3356 38.7204C44.0646 38.7075 43.7355 38.6882 43.3483 38.6624C43.2451 39.2431 43.1031 39.8883 42.9225 40.5981C42.7418 41.3208 42.5224 42.0564 42.2643 42.8048C42.0191 43.5533 41.7288 44.2889 41.3932 45.0116C41.0577 45.7471 40.6835 46.4117 40.2705 47.0054C39.8576 47.6119 39.4059 48.1281 38.9155 48.554C38.4251 48.9927 37.896 49.2895 37.3282 49.4444C36.6701 49.6251 35.9603 49.7089 35.1989 49.696C34.4375 49.696 33.6632 49.6315 32.876 49.5025C32.0888 49.3863 31.3017 49.225 30.5145 49.0185C29.7402 48.812 29.0175 48.5927 28.3464 48.3604C28.0883 48.27 27.9012 48.1539 27.7851 48.0119C27.6689 47.8829 27.6238 47.7474 27.6496 47.6054C27.6625 47.4764 27.7464 47.3667 27.9012 47.2764C28.0561 47.186 28.269 47.1409 28.54 47.1409C29.2885 47.1538 29.9789 47.1215 30.6112 47.0441C31.2565 46.9667 31.8759 46.8505 32.4695 46.6957C33.0632 46.5408 33.6503 46.3472 34.2311 46.1149C34.8118 45.8826 35.4118 45.6181 36.0313 45.3213C36.6507 45.0374 37.2572 44.6438 37.8509 44.1405C38.4574 43.6372 39.0188 43.0694 39.535 42.437C40.0511 41.8176 40.5093 41.1595 40.9093 40.4626C41.3223 39.7657 41.6513 39.0818 41.8965 38.4107C41.432 38.2688 41.0319 38.1268 40.6964 37.9849C40.3609 37.8429 40.0447 37.6493 39.7479 37.4042C39.6446 37.3138 39.5737 37.2235 39.535 37.1332C39.4962 37.0299 39.4833 36.9009 39.4962 36.746C39.535 36.1524 39.5866 35.5329 39.6511 34.8877C39.7285 34.2296 39.806 33.5714 39.8834 32.9133C39.9092 32.7197 39.9737 32.6358 40.077 32.6616C40.1802 32.6745 40.2899 32.7197 40.406 32.7971ZM54.1172 7.29421L45.6968 10.7011C45.5806 10.7527 45.5032 10.7527 45.4645 10.7011C45.4258 10.6495 45.4193 10.5849 45.4451 10.5075L46.3162 8.32015C46.3678 8.204 46.4194 8.12657 46.4711 8.08786C46.5227 8.03624 46.613 7.98462 46.7421 7.933L55.027 4.71969C55.0915 4.69388 55.1496 4.69388 55.2012 4.71969C55.2528 4.7455 55.2593 4.81002 55.2205 4.91326L54.3882 7.08128C54.3624 7.1329 54.3237 7.17807 54.272 7.21678C54.2333 7.24259 54.1817 7.2684 54.1172 7.29421ZM42.8381 34.0747H43.1865H43.6511C44.0124 34.0747 44.4705 34.0747 45.0255 34.0747C45.5804 34.0747 46.1804 34.0618 46.8257 34.036C47.4709 34.0102 48.1291 33.965 48.8001 33.9005C49.4841 33.836 50.1229 33.7456 50.7165 33.6295C51.323 33.5004 51.865 33.3391 52.3425 33.1456C52.82 32.9391 53.1813 32.681 53.4265 32.3713C53.2458 31.7002 52.9168 31.0227 52.4393 30.3387C51.9747 29.6419 51.4327 28.9644 50.8133 28.3062C50.1938 27.6481 49.5292 27.0222 48.8195 26.4286C48.1226 25.822 47.4516 25.2736 46.8063 24.7832C46.174 24.2928 45.5997 23.8734 45.0835 23.525C44.5802 23.1636 44.206 22.8926 43.9608 22.712C43.7543 22.2861 43.6382 21.7764 43.6124 21.1827C43.5866 20.5891 43.6317 19.989 43.7479 19.3825C43.8769 18.776 44.0705 18.2082 44.3286 17.6791C44.5867 17.15 44.9029 16.737 45.2771 16.4402C46.0514 15.8466 46.9547 15.2207 47.9871 14.5626C49.0324 13.9044 50.2713 13.1882 51.7037 12.4139C53.1491 11.6267 54.8331 10.7621 56.756 9.82002C58.6788 8.87796 60.9049 7.83267 63.4342 6.68414C63.5504 6.63252 63.602 6.65188 63.5891 6.74221C63.5117 7.00031 63.402 7.34874 63.26 7.7875C63.131 8.21336 62.989 8.65858 62.8342 9.12316C62.6922 9.58773 62.5502 10.0329 62.4083 10.4588C62.2663 10.8847 62.1502 11.2137 62.0599 11.446C60.0467 12.3107 58.2529 13.0849 56.6785 13.7689C55.1171 14.44 53.7104 15.0594 52.4586 15.6272C51.2198 16.195 50.1035 16.7306 49.1098 17.2339C48.1162 17.7242 47.1806 18.2146 46.303 18.705C45.8901 18.9631 45.6126 19.2212 45.4707 19.4793C45.3416 19.7245 45.3223 19.86 45.4126 19.8858C46.0707 20.26 46.7547 20.673 47.4645 21.1247C48.1742 21.5763 48.8711 22.0474 49.5551 22.5378C50.2519 23.0281 50.9165 23.5314 51.5489 24.0476C52.1941 24.5509 52.7813 25.0478 53.3104 25.5381C54.3686 26.5189 55.4139 27.5642 56.4463 28.674C57.4786 29.7838 58.5562 30.8485 59.6789 31.868C60.1693 32.3196 60.6468 32.6874 61.1114 32.9713C61.5759 33.2552 62.0599 33.4811 62.5632 33.6488C63.0793 33.8166 63.6343 33.9327 64.2279 33.9973C64.8215 34.0489 65.499 34.0747 66.2604 34.0747H66.7443H67.0928C67.1444 34.0747 67.2154 34.1457 67.3057 34.2876C67.396 34.4296 67.4864 34.6167 67.5767 34.849C67.667 35.0684 67.7445 35.32 67.809 35.6039C67.8864 35.8749 67.9251 36.1395 67.9251 36.3976C67.9251 36.6686 67.8929 36.946 67.8283 37.2299C67.7638 37.5009 67.6864 37.7526 67.596 37.9849C67.5057 38.2043 67.4089 38.3849 67.3057 38.5269C67.2154 38.6688 67.1444 38.7398 67.0928 38.7398H66.2604C65.0086 38.7398 63.8988 38.6043 62.9309 38.3333C61.976 38.0623 61.0726 37.6106 60.2209 36.9783C59.7176 36.6041 59.2143 36.1717 58.7111 35.6814C58.2207 35.191 57.7432 34.6748 57.2786 34.1328C56.814 33.5908 56.3624 33.0488 55.9236 32.5068C55.4977 31.9519 55.0977 31.4292 54.7235 30.9388C54.9041 31.4421 55.0009 31.9906 55.0138 32.5842C55.0267 33.1778 54.9686 33.7521 54.8396 34.307C54.7105 34.8619 54.5105 35.3652 54.2395 35.8169C53.9814 36.2685 53.6717 36.6105 53.3104 36.8428C52.6522 37.2557 51.9037 37.5848 51.0649 37.83C50.239 38.0752 49.3873 38.2688 48.5098 38.4107C47.6451 38.5398 46.7934 38.6301 45.9546 38.6817C45.1287 38.7204 44.3867 38.7398 43.7285 38.7398H42.8381C42.7736 38.7398 42.6961 38.6688 42.6058 38.5269C42.5155 38.3849 42.4251 38.2043 42.3348 37.9849C42.2445 37.7526 42.167 37.5009 42.1025 37.2299C42.038 36.946 42.0057 36.6686 42.0057 36.3976C42.0057 36.1395 42.038 35.8749 42.1025 35.6039C42.167 35.32 42.2445 35.0684 42.3348 34.849C42.4251 34.6167 42.5155 34.4296 42.6058 34.2876C42.6961 34.1457 42.7736 34.0747 42.8381 34.0747ZM69.4218 2.99727C69.2283 3.03599 69.0282 3.11342 68.8218 3.22956C68.6153 3.3457 68.4346 3.48766 68.2797 3.65542C68.1249 3.81028 68.0023 3.98449 67.912 4.17807C67.8216 4.37164 67.7894 4.56521 67.8152 4.75878C67.8539 4.96526 68.0281 5.12012 68.3378 5.22336C68.6604 5.3266 69.0153 5.37822 69.4025 5.37822C69.7896 5.37822 70.1639 5.33305 70.5252 5.24272C70.8865 5.15238 71.1253 5.01688 71.2414 4.83621C71.2672 4.62974 71.2414 4.41681 71.164 4.19742C71.0995 3.96514 70.9898 3.75866 70.8349 3.57799C70.6801 3.38442 70.48 3.23601 70.2348 3.13277C70.0025 3.01663 69.7315 2.97146 69.4218 2.99727ZM72.5771 4.17807C72.5771 4.59102 72.5061 5.01043 72.3641 5.43629C72.2222 5.86215 72.0157 6.2493 71.7447 6.59773C71.4737 6.93325 71.1317 7.21071 70.7188 7.43009C70.3058 7.63657 69.8283 7.73981 69.2863 7.73981C68.9508 7.73981 68.6282 7.67528 68.3185 7.54623C68.0087 7.41719 67.7248 7.24297 67.4667 7.02359C67.2215 6.7913 67.0215 6.52675 66.8667 6.22994C66.7247 5.92022 66.6537 5.59115 66.6537 5.24272C66.6537 4.88138 66.7183 4.44262 66.8473 3.92642C66.9893 3.39732 67.1893 2.88758 67.4474 2.3972C67.7184 1.89391 68.0539 1.46159 68.454 1.10026C68.854 0.738921 69.3186 0.525991 69.8477 0.461467C70.3381 0.409847 70.7575 0.513086 71.1059 0.771183C71.4543 1.02928 71.7382 1.35835 71.9576 1.75841C72.177 2.15846 72.3319 2.58432 72.4222 3.03599C72.5254 3.47475 72.5771 3.85544 72.5771 4.17807ZM64.3758 38.7398H63.5434C63.4789 38.7398 63.395 38.6688 63.2918 38.5269C63.1885 38.3849 63.0917 38.2043 63.0014 37.9849C62.9111 37.7526 62.8336 37.4945 62.7691 37.2106C62.7046 36.9267 62.6723 36.6492 62.6723 36.3782C62.6723 36.1201 62.7046 35.8556 62.7691 35.5846C62.8336 35.3136 62.9111 35.0684 63.0014 34.849C63.0917 34.6167 63.1885 34.4296 63.2918 34.2876C63.395 34.1457 63.4789 34.0747 63.5434 34.0747H63.9112H64.3758C64.5952 34.0747 64.892 34.0747 65.2662 34.0747C65.6404 34.0618 66.0469 34.0489 66.4857 34.036C66.9245 34.0231 67.3697 33.9973 67.8214 33.9586C68.273 33.9069 68.6924 33.8489 69.0796 33.7843C69.4667 33.7198 69.7958 33.6359 70.0668 33.5327C70.3378 33.4166 70.512 33.2811 70.5895 33.1262L68.344 17.8727C68.2666 17.3436 68.1117 16.8596 67.8794 16.4209C67.6601 15.9692 67.4149 15.5562 67.1439 15.182C67.0406 15.0271 66.9826 14.9303 66.9696 14.8916C66.9696 14.84 67.0213 14.7368 67.1245 14.5819C67.2406 14.4271 67.3697 14.2399 67.5116 14.0206C67.6536 13.7883 67.7956 13.556 67.9375 13.3237C68.0924 13.0785 68.2343 12.8398 68.3634 12.6075C68.5053 12.3623 68.6279 12.1493 68.7312 11.9687C68.7957 11.8396 68.8667 11.7557 68.9441 11.717C69.0215 11.6654 69.0925 11.7428 69.157 11.9493C69.2474 12.2332 69.3699 12.5365 69.5248 12.8591C69.6926 13.1688 69.8797 13.4721 70.0862 13.7689C70.3056 14.0528 70.5314 14.3174 70.7637 14.5626C71.0089 14.8077 71.2541 15.0078 71.4993 15.1626C71.1766 15.7175 70.9121 16.2079 70.7056 16.6338C70.4991 17.0467 70.4281 17.4403 70.4927 17.8146L72.1768 31.5776C72.2284 31.9648 72.2413 32.41 72.2155 32.9133C72.1897 33.4036 72.1187 33.9005 72.0025 34.4038C71.8993 34.9071 71.7444 35.3974 71.538 35.8749C71.3315 36.3395 71.0798 36.7331 70.783 37.0557C70.4217 37.4429 70.0087 37.7526 69.5442 37.9849C69.0796 38.2043 68.5698 38.372 68.0149 38.4882C67.46 38.5914 66.8729 38.6624 66.2534 38.7011C65.6469 38.7269 65.021 38.7398 64.3758 38.7398ZM77.0997 13.6915C77.19 13.6915 77.2546 13.756 77.2933 13.885C77.332 14.0141 77.3513 14.1754 77.3513 14.369C77.3643 14.5626 77.3707 14.7755 77.3707 15.0078C77.3707 15.2401 77.3836 15.4594 77.4094 15.6659C77.4739 16.2983 77.5385 16.9564 77.603 17.6404C77.6804 18.3114 77.7643 18.9954 77.8546 19.6922C78.1127 21.6796 78.3837 23.6282 78.6676 25.5381C78.9515 27.4481 79.1774 29.4031 79.3451 31.4034C79.3968 31.9583 79.429 32.5455 79.4419 33.1649C79.4677 33.7714 79.4484 34.3844 79.3839 35.0039C79.3322 35.6104 79.229 36.2105 79.0741 36.8041C78.9322 37.3848 78.7193 37.9333 78.4354 38.4494C78.3063 38.6817 78.1708 38.8043 78.0289 38.8172C77.8869 38.8301 77.803 38.7204 77.7772 38.4882C77.6611 37.2751 77.5514 36.0814 77.4481 34.9071C77.3578 33.7327 77.2288 32.539 77.061 31.326C76.9319 30.2291 76.7835 29.0612 76.6158 27.8223C76.4609 26.5705 76.2996 25.351 76.1318 24.1638C75.977 22.9636 75.8286 21.8473 75.6866 20.815C75.5447 19.7697 75.4221 18.905 75.3188 18.2211C75.3059 18.1307 75.3253 17.9565 75.3769 17.6984C75.4414 17.4403 75.5253 17.1435 75.6285 16.808C75.7318 16.4725 75.8479 16.124 75.977 15.7627C76.106 15.3885 76.2351 15.0529 76.3641 14.7561C76.5061 14.4464 76.6416 14.1948 76.7706 14.0012C76.8997 13.7947 77.0094 13.6915 77.0997 13.6915ZM101.56 50.7146L93.4496 53.5214C93.3464 53.5602 93.2754 53.5537 93.2367 53.5021C93.198 53.4505 93.1915 53.3924 93.2174 53.3279L94.1271 51.2953C94.2175 51.1147 94.353 50.9985 94.5337 50.9469L102.528 48.353C102.735 48.2885 102.793 48.3401 102.702 48.5079L101.851 50.5017C101.825 50.5533 101.786 50.592 101.735 50.6178C101.683 50.6566 101.625 50.6888 101.56 50.7146ZM94.5786 45.4181C93.5075 45.431 92.5073 45.3019 91.5782 45.0309C90.649 44.7728 89.8425 44.3663 89.1585 43.8114C88.4746 43.2694 87.9326 42.5726 87.5325 41.7208C87.1325 40.8691 86.9324 39.8625 86.9324 38.7011C86.9324 38.03 86.9905 37.3396 87.1067 36.6299C87.2228 35.9201 87.3841 35.2232 87.5906 34.5393C87.81 33.8424 88.0745 33.1714 88.3842 32.5261C88.6939 31.868 89.0424 31.2679 89.4295 30.7259C89.507 30.6227 89.5908 30.571 89.6812 30.571C89.7715 30.5581 89.8425 30.5839 89.8941 30.6485C89.9586 30.7001 89.9973 30.784 90.0102 30.9001C90.0231 31.0033 89.9973 31.113 89.9328 31.2292C89.5586 31.926 89.2876 32.6423 89.1198 33.3778C88.952 34.1134 88.8682 34.8296 88.8682 35.5265C88.8682 36.2492 88.9779 36.9267 89.1972 37.559C89.4295 38.1914 89.778 38.7398 90.2425 39.2044C90.7071 39.6819 91.2943 40.0561 92.004 40.3271C92.7138 40.5981 93.5526 40.7336 94.5205 40.7336C95.4367 40.7336 96.3272 40.6368 97.1918 40.4432C98.0564 40.2497 98.8694 39.9658 99.6308 39.5915C100.392 39.2302 101.083 38.785 101.702 38.2559C102.334 37.7139 102.87 37.1009 103.309 36.4169C103.296 35.8878 103.186 35.3394 102.98 34.7716C102.773 34.1908 102.522 33.6166 102.225 33.0488C101.928 32.468 101.599 31.9067 101.237 31.3647C100.889 30.8227 100.566 30.3323 100.27 29.8935C99.9728 29.4419 99.7211 29.0483 99.5147 28.7127C99.3082 28.3772 99.1985 28.132 99.1856 27.9772C99.4437 27.319 99.7341 26.6544 100.057 25.9834C100.392 25.2994 100.702 24.6477 100.986 24.0283C101.037 23.925 101.089 23.8799 101.141 23.8928C101.205 23.8928 101.27 23.9379 101.334 24.0283C101.825 24.7509 102.276 25.5962 102.689 26.5641C103.115 27.5319 103.476 28.5385 103.773 29.5838C104.083 30.6291 104.322 31.6744 104.489 32.7197C104.67 33.7521 104.767 34.707 104.78 35.5846C104.793 37.017 104.535 38.3269 104.006 39.5141C103.489 40.7143 102.767 41.7466 101.838 42.6113C100.921 43.4759 99.8373 44.1534 98.5855 44.6438C97.3467 45.1471 96.011 45.4052 94.5786 45.4181ZM97.6757 21.1247C97.7403 21.1634 97.7725 21.2021 97.7725 21.2408C97.7725 21.2795 97.7467 21.3312 97.6951 21.3957L95.5851 23.7573C95.4432 23.8605 95.3335 23.867 95.2561 23.7766L92.6622 21.6473C92.546 21.557 92.546 21.4602 92.6622 21.357L94.7915 18.9954C94.8947 18.8921 94.998 18.8792 95.1012 18.9567L97.6757 21.1247ZM111.484 13.343C111.587 13.343 111.658 13.4269 111.697 13.5947C111.735 13.7625 111.755 13.9625 111.755 14.1948C111.768 14.4141 111.768 14.6335 111.755 14.8529C111.742 15.0723 111.735 15.2272 111.735 15.3175C111.774 15.9498 111.813 16.608 111.851 17.2919C111.89 17.9759 111.942 18.6663 112.006 19.3632C112.2 21.3376 112.393 23.2862 112.587 25.2091C112.794 27.1319 112.935 29.0934 113.013 31.0937C113.052 31.6486 113.065 32.2358 113.052 32.8552C113.052 33.4617 113.006 34.0682 112.916 34.6748C112.839 35.2813 112.71 35.8814 112.529 36.475C112.348 37.0557 112.11 37.6042 111.813 38.1204C111.684 38.3398 111.548 38.4559 111.406 38.4688C111.277 38.4817 111.2 38.372 111.174 38.1397C111.109 36.9267 111.051 35.733 111 34.5586C110.948 33.3714 110.864 32.1712 110.748 30.9582C110.645 29.8742 110.535 28.7127 110.419 27.4739C110.316 26.2221 110.213 24.9961 110.109 23.796C110.006 22.5958 109.903 21.4731 109.8 20.4278C109.709 19.3825 109.625 18.5179 109.548 17.8339C109.535 17.7436 109.561 17.5694 109.625 17.3113C109.69 17.0532 109.78 16.7628 109.896 16.4402C110.013 16.1047 110.142 15.7563 110.284 15.3949C110.438 15.0207 110.587 14.6852 110.729 14.3883C110.884 14.0786 111.026 13.827 111.155 13.6334C111.297 13.4398 111.406 13.343 111.484 13.343ZM107.554 7.20678C107.632 7.09064 107.767 7.07774 107.961 7.16807C108.541 7.46488 109.18 7.69717 109.877 7.86493C110.587 8.0327 111.271 8.10367 111.929 8.07786C112.329 8.06496 112.735 8.02624 113.148 7.96172C113.574 7.89719 113.981 7.80041 114.368 7.67136C114.755 7.52941 115.123 7.34874 115.471 7.12936C115.82 6.89707 116.129 6.60671 116.4 6.25828C116.517 6.12923 116.633 6.09697 116.749 6.16149C116.865 6.21311 116.904 6.29699 116.865 6.41314C116.671 7.04547 116.394 7.60684 116.033 8.09722C115.671 8.5876 115.252 9.00701 114.774 9.35544C114.297 9.69097 113.768 9.94907 113.187 10.1297C112.606 10.2975 112 10.3814 111.368 10.3814C110.709 10.3814 110.077 10.304 109.471 10.1491C108.877 9.99423 108.354 9.78776 107.903 9.52966C107.825 9.47804 107.767 9.45223 107.728 9.45223C107.703 9.43933 107.677 9.46513 107.651 9.52966C107.522 9.81357 107.361 10.0846 107.167 10.3427C106.986 10.6008 106.819 10.7298 106.664 10.7298C106.573 10.7169 106.522 10.6395 106.509 10.4975C106.496 10.3427 106.502 10.2072 106.528 10.091C106.554 9.93616 106.599 9.72323 106.664 9.45223C106.741 9.18123 106.825 8.90377 106.915 8.61987C107.019 8.33596 107.122 8.06496 107.225 7.80686C107.341 7.54876 107.451 7.34874 107.554 7.20678ZM123.201 15.9973C123.007 16.036 122.807 16.1134 122.601 16.2296C122.394 16.3457 122.214 16.4877 122.059 16.6554C121.904 16.8103 121.781 16.9845 121.691 17.1781C121.601 17.3716 121.569 17.5652 121.594 17.7588C121.633 17.9653 121.807 18.1201 122.117 18.2234C122.44 18.3266 122.795 18.3782 123.182 18.3782C123.569 18.3782 123.943 18.3331 124.304 18.2427C124.666 18.1524 124.904 18.0169 125.021 17.8362C125.046 17.6297 125.021 17.4168 124.943 17.1974C124.879 16.9651 124.769 16.7587 124.614 16.578C124.459 16.3844 124.259 16.236 124.014 16.1328C123.782 16.0166 123.511 15.9715 123.201 15.9973ZM126.356 17.1781C126.356 17.591 126.285 18.0104 126.143 18.4363C126.001 18.8622 125.795 19.2493 125.524 19.5977C125.253 19.9333 124.911 20.2107 124.498 20.4301C124.085 20.6366 123.608 20.7398 123.066 20.7398C122.73 20.7398 122.407 20.6753 122.098 20.5462C121.788 20.4172 121.504 20.243 121.246 20.0236C121.001 19.7913 120.801 19.5268 120.646 19.2299C120.504 18.9202 120.433 18.5911 120.433 18.2427C120.433 17.8814 120.497 17.4426 120.627 16.9264C120.768 16.3973 120.968 15.8876 121.227 15.3972C121.498 14.8939 121.833 14.4616 122.233 14.1003C122.633 13.7389 123.098 13.526 123.627 13.4615C124.117 13.4098 124.537 13.5131 124.885 13.7712C125.234 14.0293 125.517 14.3584 125.737 14.7584C125.956 15.1585 126.111 15.5843 126.201 16.036C126.305 16.4748 126.356 16.8554 126.356 17.1781ZM125.259 32.7971C125.904 33.2359 126.601 33.5585 127.35 33.765C128.111 33.9715 129.021 34.0747 130.079 34.0747H130.795H131.144C131.195 34.0747 131.266 34.1457 131.357 34.2876C131.46 34.4296 131.557 34.6167 131.647 34.849C131.737 35.0684 131.815 35.32 131.879 35.6039C131.944 35.8749 131.976 36.1459 131.976 36.4169C131.976 36.6879 131.937 36.9654 131.86 37.2493C131.795 37.5203 131.718 37.7655 131.628 37.9849C131.537 38.2043 131.447 38.3849 131.357 38.5269C131.266 38.6688 131.195 38.7398 131.144 38.7398H130.079C129.769 38.7398 129.473 38.7334 129.189 38.7204C128.918 38.7075 128.589 38.6882 128.201 38.6624C128.098 39.2431 127.956 39.8883 127.776 40.5981C127.595 41.3208 127.375 42.0564 127.117 42.8048C126.872 43.5533 126.582 44.2889 126.246 45.0116C125.911 45.7471 125.537 46.4117 125.124 47.0054C124.711 47.6119 124.259 48.1281 123.769 48.554C123.278 48.9927 122.749 49.2895 122.181 49.4444C121.523 49.6251 120.813 49.7089 120.052 49.696C119.291 49.696 118.516 49.6315 117.729 49.5025C116.942 49.3863 116.155 49.225 115.368 49.0185C114.593 48.812 113.871 48.5927 113.199 48.3604C112.941 48.27 112.754 48.1539 112.638 48.0119C112.522 47.8829 112.477 47.7474 112.503 47.6054C112.516 47.4764 112.599 47.3667 112.754 47.2764C112.909 47.186 113.122 47.1409 113.393 47.1409C114.142 47.1538 114.832 47.1215 115.464 47.0441C116.11 46.9667 116.729 46.8505 117.323 46.6957C117.916 46.5408 118.503 46.3472 119.084 46.1149C119.665 45.8826 120.265 45.6181 120.884 45.3213C121.504 45.0374 122.11 44.6438 122.704 44.1405C123.31 43.6372 123.872 43.0694 124.388 42.437C124.904 41.8176 125.362 41.1595 125.762 40.4626C126.175 39.7657 126.504 39.0818 126.75 38.4107C126.285 38.2688 125.885 38.1268 125.549 37.9849C125.214 37.8429 124.898 37.6493 124.601 37.4042C124.498 37.3138 124.427 37.2235 124.388 37.1332C124.349 37.0299 124.336 36.9009 124.349 36.746C124.388 36.1524 124.44 35.5329 124.504 34.8877C124.582 34.2296 124.659 33.5714 124.736 32.9133C124.762 32.7197 124.827 32.6358 124.93 32.6616C125.033 32.6745 125.143 32.7197 125.259 32.7971ZM138.448 8.55863C138.009 8.36506 137.589 8.13922 137.189 7.88113C136.789 7.62303 136.499 7.2746 136.318 6.83583C136.176 6.46159 136.176 6.06154 136.318 5.63568C136.434 5.31306 136.609 4.99689 136.841 4.68718C137.073 4.36455 137.344 4.0871 137.654 3.85481C137.964 3.60962 138.293 3.4225 138.641 3.29345C139.003 3.1515 139.357 3.09988 139.706 3.13859C139.99 3.17731 140.216 3.29345 140.383 3.48702C140.551 3.66769 140.68 3.89353 140.77 4.16453C140.861 4.43553 140.919 4.73879 140.945 5.07432C140.97 5.39694 140.97 5.71311 140.945 6.02283C140.932 6.33254 140.9 6.61645 140.848 6.87455C140.809 7.11974 140.77 7.31331 140.732 7.45527C140.706 7.51979 140.732 7.57141 140.809 7.61013C141.119 7.8166 141.319 8.05534 141.409 8.32635C141.487 8.54573 141.48 8.79737 141.39 9.08128C141.312 9.36519 141.216 9.58457 141.1 9.73943C140.996 9.89429 140.9 9.95881 140.809 9.933C140.719 9.90719 140.635 9.83621 140.558 9.72007C140.506 9.64264 140.396 9.5394 140.228 9.41035C140.074 9.2813 139.938 9.19097 139.822 9.13935C139.164 9.91364 138.422 10.5524 137.596 11.0557C136.77 11.559 135.892 11.9849 134.963 12.3333C134.77 12.4107 134.557 12.4688 134.324 12.5075C134.105 12.5462 133.892 12.572 133.686 12.5849C133.492 12.5979 133.324 12.5914 133.182 12.5656C133.053 12.5269 132.982 12.4688 132.969 12.3914C132.957 12.3139 132.989 12.2365 133.066 12.1591C133.144 12.0817 133.24 12.0107 133.357 11.9462C133.473 11.8687 133.589 11.8042 133.705 11.7526C133.821 11.6881 133.918 11.6364 133.995 11.5977C134.757 11.1977 135.492 10.7783 136.202 10.3395C136.912 9.88783 137.66 9.29421 138.448 8.55863ZM139.319 5.36468C139.215 5.26144 139.08 5.20337 138.912 5.19046C138.757 5.16465 138.596 5.17111 138.428 5.20982C138.273 5.24854 138.131 5.31306 138.002 5.40339C137.873 5.49373 137.789 5.59052 137.751 5.69375C137.893 5.96476 138.119 6.2035 138.428 6.40997C138.738 6.60355 139.073 6.75195 139.435 6.85519C139.461 6.76486 139.486 6.65517 139.512 6.52612C139.538 6.38416 139.551 6.24221 139.551 6.10026C139.551 5.9583 139.532 5.8228 139.493 5.69375C139.467 5.56471 139.409 5.45501 139.319 5.36468ZM139.17 30.8033C139.157 30.571 139.112 30.3258 139.035 30.0677C138.957 29.8096 138.841 29.5774 138.686 29.3709C138.544 29.1644 138.37 29.0031 138.163 28.8869C137.97 28.7579 137.744 28.6998 137.486 28.7127C137.267 28.7385 136.996 28.816 136.673 28.945C136.363 29.0612 136.053 29.2096 135.744 29.3902C135.447 29.5709 135.182 29.7645 134.95 29.971C134.731 30.1645 134.602 30.3452 134.563 30.513C134.576 30.6033 134.666 30.7517 134.834 30.9582C135.015 31.1518 135.215 31.3518 135.434 31.5583C135.653 31.7647 135.866 31.9519 136.073 32.1196C136.279 32.2745 136.421 32.3584 136.499 32.3713C136.576 32.3584 136.737 32.2938 136.983 32.1777C137.241 32.0615 137.512 31.926 137.796 31.7712C138.092 31.6163 138.37 31.455 138.628 31.2873C138.886 31.1066 139.067 30.9453 139.17 30.8033ZM138.957 33.5133C139.099 33.5908 139.306 33.6682 139.577 33.7456C139.848 33.8102 140.157 33.8682 140.506 33.9198C140.854 33.9586 141.228 33.9973 141.628 34.036C142.028 34.0618 142.428 34.0747 142.829 34.0747H143.332H143.661C143.725 34.0747 143.803 34.1457 143.893 34.2876C143.996 34.4296 144.087 34.6167 144.164 34.849C144.255 35.0684 144.332 35.32 144.396 35.6039C144.461 35.8749 144.493 36.1395 144.493 36.3976C144.493 36.6686 144.461 36.946 144.396 37.2299C144.345 37.5009 144.274 37.7526 144.184 37.9849C144.093 38.2043 144.003 38.3849 143.913 38.5269C143.822 38.6688 143.738 38.7398 143.661 38.7398H142.829C142.016 38.7398 141.248 38.6817 140.525 38.5656C139.815 38.4494 139.144 38.2946 138.512 38.101C137.892 37.9074 137.312 37.6816 136.77 37.4235C136.241 37.1654 135.757 36.9009 135.318 36.6299C134.982 36.8622 134.537 37.1073 133.982 37.3654C133.427 37.6106 132.834 37.8365 132.201 38.0429C131.569 38.2365 130.93 38.4043 130.285 38.5462C129.64 38.6753 129.059 38.7398 128.543 38.7398H127.73C127.678 38.7398 127.607 38.6688 127.517 38.5269C127.414 38.3849 127.31 38.2043 127.207 37.9849C127.104 37.7526 127.014 37.5009 126.936 37.2299C126.859 36.946 126.82 36.6686 126.82 36.3976C126.82 36.1395 126.859 35.8749 126.936 35.6039C127.014 35.32 127.104 35.0684 127.207 34.849C127.298 34.6167 127.394 34.4296 127.498 34.2876C127.601 34.1457 127.678 34.0747 127.73 34.0747H128.04H128.543C128.878 34.0747 129.24 34.0618 129.627 34.036C130.027 34.0102 130.427 33.9715 130.827 33.9198C131.24 33.8682 131.646 33.8037 132.047 33.7263C132.447 33.6359 132.821 33.5262 133.169 33.3972C132.937 32.8552 132.827 32.3325 132.84 31.8293C132.853 31.3131 132.943 30.784 133.111 30.242C133.227 29.8548 133.389 29.4354 133.595 28.9837C133.814 28.5321 134.066 28.0804 134.35 27.6287C134.634 27.1771 134.944 26.7383 135.279 26.3124C135.615 25.8866 135.963 25.5123 136.324 25.1897C136.699 24.8671 137.073 24.6154 137.447 24.4348C137.834 24.2412 138.215 24.1509 138.589 24.1638C138.912 24.1767 139.196 24.2993 139.441 24.5316C139.686 24.7509 139.899 25.0413 140.08 25.4026C140.273 25.764 140.428 26.1705 140.544 26.6221C140.673 27.0738 140.77 27.5255 140.835 27.9772C140.899 28.4288 140.938 28.8611 140.951 29.2741C140.964 29.687 140.951 30.0419 140.912 30.3387C140.873 30.6614 140.79 30.9775 140.661 31.2873C140.531 31.597 140.377 31.8873 140.196 32.1583C140.015 32.4293 139.815 32.681 139.596 32.9133C139.376 33.1456 139.164 33.3456 138.957 33.5133ZM136.518 17.3887L138.183 15.182C138.299 15.0658 138.396 15.0529 138.473 15.1433L140.951 17.1758C141.041 17.2274 141.054 17.3306 140.99 17.4855L139.131 19.8858C139.002 20.0149 138.893 20.0213 138.802 19.9052L136.518 18.0275L134.834 20.2342C134.731 20.3504 134.627 20.3568 134.524 20.2536L132.066 18.2598C131.95 18.1695 131.943 18.0533 132.047 17.9114L133.924 15.5111C134.002 15.4336 134.092 15.4207 134.195 15.4723L136.518 17.3887ZM146.067 2.99727C145.874 3.03599 145.674 3.11342 145.467 3.22956C145.261 3.3457 145.08 3.48766 144.925 3.65542C144.77 3.81028 144.648 3.98449 144.558 4.17807C144.467 4.37164 144.435 4.56521 144.461 4.75878C144.499 4.96526 144.674 5.12012 144.983 5.22336C145.306 5.3266 145.661 5.37822 146.048 5.37822C146.435 5.37822 146.809 5.33305 147.171 5.24272C147.532 5.15238 147.771 5.01688 147.887 4.83621C147.913 4.62974 147.887 4.41681 147.81 4.19742C147.745 3.96514 147.635 3.75866 147.48 3.57799C147.326 3.38442 147.126 3.23601 146.88 3.13277C146.648 3.01663 146.377 2.97146 146.067 2.99727ZM149.223 4.17807C149.223 4.59102 149.152 5.01043 149.01 5.43629C148.868 5.86215 148.661 6.2493 148.39 6.59773C148.119 6.93325 147.777 7.21071 147.364 7.43009C146.951 7.63657 146.474 7.73981 145.932 7.73981C145.596 7.73981 145.274 7.67528 144.964 7.54623C144.654 7.41719 144.37 7.24297 144.112 7.02359C143.867 6.7913 143.667 6.52675 143.512 6.22994C143.37 5.92022 143.299 5.59115 143.299 5.24272C143.299 4.88138 143.364 4.44262 143.493 3.92642C143.635 3.39732 143.835 2.88758 144.093 2.3972C144.364 1.89391 144.699 1.46159 145.1 1.10026C145.5 0.738921 145.964 0.525991 146.493 0.461467C146.984 0.409847 147.403 0.513086 147.751 0.771183C148.1 1.02928 148.384 1.35835 148.603 1.75841C148.823 2.15846 148.977 2.58432 149.068 3.03599C149.171 3.47475 149.223 3.85544 149.223 4.17807ZM141.021 38.7398H140.189C140.124 38.7398 140.041 38.6688 139.937 38.5269C139.834 38.3849 139.737 38.2043 139.647 37.9849C139.557 37.7526 139.479 37.4945 139.415 37.2106C139.35 36.9267 139.318 36.6492 139.318 36.3782C139.318 36.1201 139.35 35.8556 139.415 35.5846C139.479 35.3136 139.557 35.0684 139.647 34.849C139.737 34.6167 139.834 34.4296 139.937 34.2876C140.041 34.1457 140.124 34.0747 140.189 34.0747H140.557H141.021C141.241 34.0747 141.538 34.0747 141.912 34.0747C142.286 34.0618 142.693 34.0489 143.131 34.036C143.57 34.0231 144.015 33.9973 144.467 33.9586C144.919 33.9069 145.338 33.8489 145.725 33.7843C146.112 33.7198 146.441 33.6359 146.712 33.5327C146.983 33.4166 147.158 33.2811 147.235 33.1262L144.99 17.8727C144.912 17.3436 144.757 16.8596 144.525 16.4209C144.306 15.9692 144.06 15.5562 143.789 15.182C143.686 15.0271 143.628 14.9303 143.615 14.8916C143.615 14.84 143.667 14.7368 143.77 14.5819C143.886 14.4271 144.015 14.2399 144.157 14.0206C144.299 13.7883 144.441 13.556 144.583 13.3237C144.738 13.0785 144.88 12.8398 145.009 12.6075C145.151 12.3623 145.273 12.1493 145.377 11.9687C145.441 11.8396 145.512 11.7557 145.59 11.717C145.667 11.6654 145.738 11.7428 145.803 11.9493C145.893 12.2332 146.016 12.5365 146.17 12.8591C146.338 13.1688 146.525 13.4721 146.732 13.7689C146.951 14.0528 147.177 14.3174 147.409 14.5626C147.654 14.8077 147.9 15.0078 148.145 15.1626C147.822 15.7175 147.558 16.2079 147.351 16.6338C147.145 17.0467 147.074 17.4403 147.138 17.8146L148.822 31.5776C148.874 31.9648 148.887 32.41 148.861 32.9133C148.835 33.4036 148.764 33.9005 148.648 34.4038C148.545 34.9071 148.39 35.3974 148.184 35.8749C147.977 36.3395 147.725 36.7331 147.429 37.0557C147.067 37.4429 146.654 37.7526 146.19 37.9849C145.725 38.2043 145.215 38.372 144.661 38.4882C144.106 38.5914 143.518 38.6624 142.899 38.7011C142.292 38.7269 141.667 38.7398 141.021 38.7398ZM153.745 13.6915C153.836 13.6915 153.9 13.756 153.939 13.885C153.978 14.0141 153.997 14.1754 153.997 14.369C154.01 14.5626 154.016 14.7755 154.016 15.0078C154.016 15.2401 154.029 15.4594 154.055 15.6659C154.12 16.2983 154.184 16.9564 154.249 17.6404C154.326 18.3114 154.41 18.9954 154.5 19.6922C154.758 21.6796 155.029 23.6282 155.313 25.5381C155.597 27.4481 155.823 29.4031 155.991 31.4034C156.042 31.9583 156.075 32.5455 156.088 33.1649C156.113 33.7714 156.094 34.3844 156.029 35.0039C155.978 35.6104 155.875 36.2105 155.72 36.8041C155.578 37.3848 155.365 37.9333 155.081 38.4494C154.952 38.6817 154.816 38.8043 154.674 38.8172C154.532 38.8301 154.449 38.7204 154.423 38.4882C154.307 37.2751 154.197 36.0814 154.094 34.9071C154.003 33.7327 153.874 32.539 153.707 31.326C153.578 30.2291 153.429 29.0612 153.261 27.8223C153.106 26.5705 152.945 25.351 152.777 24.1638C152.623 22.9636 152.474 21.8473 152.332 20.815C152.19 19.7697 152.068 18.905 151.964 18.2211C151.951 18.1307 151.971 17.9565 152.022 17.6984C152.087 17.4403 152.171 17.1435 152.274 16.808C152.377 16.4725 152.493 16.124 152.623 15.7627C152.752 15.3885 152.881 15.0529 153.01 14.7561C153.152 14.4464 153.287 14.1948 153.416 14.0012C153.545 13.7947 153.655 13.6915 153.745 13.6915Z" fill="#212A35"/>
</svg>
